<?xml version="1.0" encoding="UTF-8" standalone="no"?>
<!-- Created with Inkscape (http://www.inkscape.org/) -->

<svg
   xmlns:dc="http://purl.org/dc/elements/1.1/"
   xmlns:cc="http://creativecommons.org/ns#"
   xmlns:rdf="http://www.w3.org/1999/02/22-rdf-syntax-ns#"
   xmlns:svg="http://www.w3.org/2000/svg"
   xmlns="http://www.w3.org/2000/svg"
   xmlns:sodipodi="http://sodipodi.sourceforge.net/DTD/sodipodi-0.dtd"
   xmlns:inkscape="http://www.inkscape.org/namespaces/inkscape"
   version="1.1"
   id="svg2"
   xml:space="preserve"
   width="1066.6667"
   height="1066.6667"
   viewBox="0 0 1066.6667 1066.6667"
   sodipodi:docname="logo.svg"
   inkscape:version="0.92.2 5c3e80d, 2017-08-06"><metadata
     id="metadata8"><rdf:RDF><cc:Work
         rdf:about=""><dc:format>image/svg+xml</dc:format><dc:type
           rdf:resource="http://purl.org/dc/dcmitype/StillImage" /><dc:title></dc:title></cc:Work></rdf:RDF></metadata><defs
     id="defs6"><clipPath
       clipPathUnits="userSpaceOnUse"
       id="clipPath18"><path
         d="M 0,800 H 800 V 0 H 0 Z"
         id="path16"
         inkscape:connector-curvature="0" /></clipPath><clipPath
       clipPathUnits="userSpaceOnUse"
       id="clipPath52"><path
         d="M 0,800 H 800 V 0 H 0 Z"
         id="path50"
         inkscape:connector-curvature="0" /></clipPath></defs><sodipodi:namedview
     pagecolor="#ffffff"
     bordercolor="#666666"
     borderopacity="1"
     objecttolerance="10"
     gridtolerance="10"
     guidetolerance="10"
     inkscape:pageopacity="0"
     inkscape:pageshadow="2"
     inkscape:window-width="1920"
     inkscape:window-height="1004"
     id="namedview4"
     showgrid="false"
     inkscape:zoom="0.22124998"
     inkscape:cx="-253.10736"
     inkscape:cy="533.33337"
     inkscape:window-x="0"
     inkscape:window-y="0"
     inkscape:window-maximized="1"
     inkscape:current-layer="g14" /><g
     id="g10"
     inkscape:groupmode="layer"
     inkscape:label="Green House Logo"
     transform="matrix(1.3333333,0,0,-1.3333333,0,1066.6667)"><g
       id="g12"
       transform="matrix(1.6279051,0,0,1.6279051,-243.59381,-436.60656)"><g
         id="g14"
         clip-path="url(#clipPath18)"><g
           id="g20"
           transform="translate(306.4414,481.4995)"><path
             d="m 0,0 c 0,2.4 6.6,65.4 6.6,65.4 h 45 L 110.01,120 151.8,65.4 146.999,21 82.801,-22.8 Z"
             style="fill:#ffffff;fill-opacity:1;fill-rule:nonzero;stroke:none"
             id="path22"
             inkscape:connector-curvature="0" /></g><g
           id="g24"
           transform="translate(211.9258,450.6001)"
           style="fill:#ffffff;fill-opacity:1"><path
             d="m 0,0 c 0,0 49.5,12.6 57.601,12.6 8.099,0 81.956,-6.3 86.878,-6.3 H 189.9 c 3.6,0 45.9,19.8 54,27.9 8.1,8.1 32.4,13.5 54.9,13.5 22.5,0 101.475,-19.125 106.2,-23.85 4.726,-4.725 -19.35,-48.6 -40.5,-69.751 -21.149,-21.148 -57.6,-45 -86.399,-54 -28.801,-9 -73.632,-10.799 -96.666,-10.799 C 158.4,-110.7 83.7,-91.799 72,-80.1 60.3,-68.401 22.05,-33.75 11.7,-23.4 1.351,-13.05 0,0 0,0"
             style="fill:#ffffff;fill-opacity:1;fill-rule:nonzero;stroke:none"
             id="path26"
             inkscape:connector-curvature="0" /></g><path
           d="m 405.651,517.601 h 21.6 v 21.6 h -21.6 z"
           style="fill:#313042;fill-opacity:1;fill-rule:nonzero;stroke:none"
           id="path28"
           inkscape:connector-curvature="0" /><g
           id="g30"
           transform="translate(583.13202,386.07997)"><path
             d="m 0,72.792967 -0.004,-0.001 C -6.627,68.212965 -12.994,63.392963 -19.08,58.354963 l -0.137,-0.115 c -6.018,-4.988 -11.766,-10.189 -17.226,-15.583 -0.113,-0.112 -0.225,-0.221 -0.334,-0.332 -4.338,-4.297 -8.494,-8.717 -12.456,-13.244 -0.032,-0.038 -0.064,-0.073 -0.095,-0.108 -0.907,-1.037 -1.8,-2.082 -2.686,-3.131 -0.179,-0.211 -0.359,-0.422 -0.535,-0.632 -0.861,-1.024 -1.712,-2.053 -2.555,-3.088 -0.126,-0.159 -0.253,-0.319 -0.383,-0.479 -1.635,-2.017 -3.228,-4.057 -4.785,-6.115 -4.437,3.295 -8.955,6.517 -13.564,9.662 0.092,0.098 0.19,0.191 0.281,0.291 0.321,0.328 0.644,0.65 0.964,0.98 2.855,2.93 5.797,5.805 8.831,8.622 0.278,0.257 0.549,0.517 0.83,0.771 0.84,0.775 1.698,1.541 2.552,2.305 0.422,0.379 0.841,0.758 1.266,1.133 0.823,0.726 1.656,1.443 2.489,2.159 0.468,0.402 0.935,0.804 1.406,1.203 0.826,0.7 1.663,1.392 2.5,2.084 0.492,0.405 0.985,0.809 1.48,1.212 0.841,0.682 1.687,1.361 2.542,2.033 0.496,0.396 0.998,0.789 1.501,1.18 0.868,0.677 1.74,1.349 2.619,2.015 0.492,0.372 0.988,0.743 1.487,1.114 0.9,0.673 1.807,1.345 2.718,2.009 0.474,0.345 0.949,0.682 1.427,1.023 0.949,0.684 1.902,1.365 2.869,2.035 0.404,0.284 0.815,0.558 1.22,0.839 1.047,0.723 2.098,1.442 3.161,2.152 0.143,0.096 0.295,0.19 0.439,0.288 3.899,2.59 7.896,5.089001 11.978,7.501002 0.235,0.136 0.464,0.279 0.699,0.418 1.114,0.652 2.236,1.291 3.361,1.930001 0.44,0.248 0.875,0.501 1.315,0.747 1.065,0.596 2.137,1.181 3.216,1.763001 0.51,0.278 1.02,0.558 1.534,0.832 1.047,0.561 2.105,1.112 3.164,1.661001 0.551,0.282 1.096,0.566 1.648,0.847 1.055,0.536 2.113,1.065 3.179,1.589 0.562,0.278 1.128,0.553 1.69,0.828 1.073,0.518001 2.149,1.034001 3.228,1.540001 0.558,0.26 1.118,0.519 1.68,0.775 1.101,0.51 2.211,1.014001 3.326,1.510001 0.527,0.234 1.058,0.464 1.59,0.696 1.163,0.508 2.323,1.014 3.494,1.506 0.432,0.184 0.872,0.36 1.307,0.542 1.277,0.531 2.556,1.06 3.847,1.574 0.007,0.001 0.014,0.002 0.018,0.004 0.185,-0.121 0.382,-0.235 0.569,-0.358 0.299,-0.187 0.6,-0.369 0.892,-0.562 0.078,-0.051 0.152,-0.108 0.233,-0.159 C 13.556,81.736969 6.647,77.386968 0,72.792967 M -85.634,-15.95103 c -37.304,35.972993 -82.417,65.372993 -132.894,86.281996 9.443,-2.346001 18.85,-4.998002 28.21,-7.995003 48.515,-15.542 91.978,-38.753 128.949,-67.2649948 -7.752,-4.1129988 -15.845,-7.8009982 -24.265,-11.0219982 m -50.84,-13.4 c -38.035,42.061993 -86.09,76.507993 -140.838,100.846996 5.895,-1.622001 11.777,-3.359001 17.637,-5.236002 59.098,-18.932001 111.892,-49.461001 154.646,-88.676994 -10.143,-2.911 -20.634,-5.241 -31.445,-6.934 m -45.263,-3.451 c -6.089,0.084 -12.09,0.361 -18.003,0.82 -37.002,44.319993 -84.77,80.920993 -139.748,107.158997 3.466,-1.02 6.932,-2.066 10.388,-3.173001 67.949,-21.764003 125.998,-58.544003 170.116,-103.920996 -7.478,-0.565 -15.061,-0.885 -22.753,-0.885 m -88.731,16.965 c -26.391,31.860993 -58.337,59.768993 -94.519,82.749994 53.551,-22.650001 100.654,-55.248001 138.05,-95.312994 -15.164,2.832 -29.683,7.022 -43.531,12.563 m 16.875,169.129 h 21.6 v -21.6 h -21.6 z m 54.598,16.8 37.8,45.323 31.799,-45.323 v -43.2 c -40.43,-13.661 -69.599,-36 -69.599,-36 z m 82.016,-71.332 c 4.049,1.49 8.163,2.893 12.326,4.219 0.6,0.189 1.204,0.377 1.806,0.564 4.082,1.269 8.209,2.464 12.397,3.562 0.304,0.077 0.606,0.149 0.908,0.22 0.101,0.026 0.199,0.048 0.298,0.074 0.706,0.172 1.409,0.343 2.112,0.519 v -0.002 c -2.77,-1.16 -5.509,-2.366 -8.226,-3.603 -0.408,-0.187 -0.816,-0.372 -1.22,-0.559 -2.406,-1.106 -4.783,-2.254 -7.148,-3.419 -0.591,-0.294 -1.182,-0.587 -1.773,-0.885 -2.325,-1.167 -4.639,-2.349 -6.924,-3.573 -0.384,-0.204 -0.77,-0.409 -1.153,-0.619 -2.56,-1.383 -5.094,-2.798 -7.598,-4.254 -0.224,-0.13 -0.449,-0.265 -0.675,-0.399 -1.068,-0.624 -2.114,-1.28 -3.174,-1.917 -1.28,-0.772 -2.572,-1.53 -3.835,-2.319 -0.306,-0.19 -0.613,-0.376 -0.918,-0.568 -2.411,-1.519 -4.799,-3.07 -7.155,-4.656001 -0.365,-0.245 -0.723,-0.495 -1.09,-0.742 -2.256,-1.533001 -4.493,-3.092001 -6.697,-4.684001 -0.14,-0.101 -0.281,-0.201 -0.422,-0.301001 -2.285,-1.658 -4.535,-3.355001 -6.76,-5.078001 -0.414,-0.322 -0.829,-0.648001 -1.245,-0.973001 -0.45,-0.349 -0.882,-0.715 -1.329,-1.068 -4.548,1.846001 -9.133,3.641001 -13.784,5.352002 5.628,3.530001 11.429,6.891002 17.409,10.048003 2.246,1.183 4.521,2.332 6.814,3.461 2.534,1.248 5.116,2.438 7.706,3.619 3.883,1.774 7.809,3.493 11.819,5.1 2.483,0.996 4.999,1.947 7.531,2.881 m 75.227,5.548 c 0.795,0.209 1.596,0.384 2.395,0.587 -0.002,0 -0.004,-0.002 -0.006,-0.002 h 0.002 c -0.31,-0.13 -0.611,-0.271 -0.919,-0.403 -2.481,-1.05 -4.948,-2.122 -7.385,-3.232 -0.369,-0.167 -0.738,-0.336 -1.107,-0.507 -5.425,-2.492 -10.748,-5.136 -15.961,-7.928 -0.359,-0.191 -0.718,-0.383 -1.073,-0.576 -2.588,-1.397 -5.15,-2.826 -7.681,-4.298 -0.176,-0.101 -0.345,-0.206 -0.517,-0.305 -1.32,-0.771 -2.612,-1.576 -3.917,-2.365 -1.079,-0.654 -2.173,-1.29 -3.241,-1.958 -0.292,-0.181 -0.587,-0.359 -0.875,-0.544 -2.434,-1.527001 -4.834,-3.088001 -7.204,-4.684002 -0.172,-0.115 -0.341,-0.232 -0.512,-0.348 -0.17,-0.116 -0.341,-0.232 -0.511,-0.348 -2.271,-1.538 -4.514,-3.104001 -6.729,-4.704001 -0.144,-0.105001 -0.292,-0.206001 -0.436,-0.311001 -2.296,-1.663 -4.55,-3.362001 -6.778,-5.091001 -0.411,-0.316001 -0.815,-0.634001 -1.224,-0.950001 -4.429,-3.471001 -8.736,-7.064001 -12.909,-10.777001 -0.162,-0.145 -0.323,-0.289 -0.487,-0.433 -0.251,-0.225 -0.502,-0.45 -0.754,-0.677 -0.503,-0.45 -0.984,-0.918 -1.483,-1.371 -4.771,2.419 -9.605,4.771 -14.509,7.035 1.771,1.299 3.557,2.584 5.364,3.841001 1.533,1.063 3.076,2.112 4.634,3.147 3.846,2.549001 7.802,4.975002 11.807,7.341003 2.482,1.465001 4.968,2.929001 7.508,4.322001 1.659,0.908001 3.332,1.801001 5.017,2.678001 18.52,9.653001 38.485,17.361001 59.491,22.861001 m 39.432,-5.368 c 0,0 0.003,0.002 0.007,0.002 0.569,-0.279 1.145,-0.551 1.715,-0.837 -1.709,-0.776 -3.407,-1.567 -5.09,-2.373 -0.785,-0.374 -1.562,-0.758 -2.338,-1.14 -0.974,-0.475 -1.952,-0.949 -2.918,-1.435 -0.824,-0.414 -1.642,-0.836 -2.461,-1.258 -0.908,-0.465 -1.815,-0.933 -2.714,-1.408 -0.83,-0.437 -1.652,-0.881 -2.479,-1.325 -0.882,-0.477 -1.757,-0.955 -2.633,-1.438 -0.82,-0.454 -1.635,-0.909 -2.447,-1.368 -0.872,-0.492 -1.737,-0.993 -2.601,-1.494 -0.795,-0.461 -1.593,-0.921 -2.381,-1.388 -0.889,-0.526 -1.768,-1.061 -2.647,-1.593 -0.753,-0.459001 -1.508,-0.912001 -2.254,-1.375001 -0.98,-0.608 -1.951,-1.229 -2.921,-1.846001 -0.693,-0.44 -1.389,-0.875 -2.075,-1.321 -1.462,-0.951 -2.918,-1.913 -4.359,-2.885001 -0.678,-0.461 -1.346,-0.93 -2.022,-1.393 -0.878,-0.604001 -1.753,-1.209001 -2.625,-1.820001 -0.721,-0.509 -1.431,-1.025 -2.145,-1.538001 -0.809,-0.584 -1.617,-1.166 -2.422,-1.758 -0.721,-0.531 -1.438,-1.069001 -2.155,-1.605001 -0.78,-0.589 -1.558,-1.178 -2.334,-1.774 -0.707,-0.545 -1.414,-1.09 -2.113,-1.638001 -0.778,-0.608 -1.547,-1.22 -2.314,-1.835 -0.682,-0.547 -1.364,-1.093 -2.042,-1.647 -0.788,-0.643 -1.568,-1.296 -2.346,-1.948 -0.639,-0.532 -1.275,-1.06 -1.908,-1.596 -0.893,-0.762 -1.775,-1.535 -2.658,-2.308 -0.563,-0.491 -1.129,-0.977 -1.688,-1.471 -1.258,-1.122 -2.506,-2.254 -3.74,-3.393 -0.562,-0.518 -1.107,-1.044 -1.667,-1.564 -0.769,-0.73 -1.543,-1.456 -2.309,-2.192 -0.598,-0.575 -1.189,-1.159 -1.78,-1.743 -0.71,-0.692 -1.413,-1.386 -2.109,-2.088 -0.598,-0.598 -1.187,-1.199 -1.778,-1.803 -0.679,-0.697 -1.358,-1.398 -2.029,-2.101 -0.577,-0.606 -1.153,-1.213 -1.726,-1.823 -0.092,-0.099 -0.183,-0.201 -0.278,-0.3 -4.943,3.066 -9.974,6.047 -15.092,8.935 1.824,1.584 3.684,3.137 5.557,4.673 l 0.771,0.627 c 2.514,2.042 5.073,4.042 7.678,5.996 0.208,0.158 0.419,0.312 0.629,0.47 2.675,1.993 5.386,3.942 8.149,5.836 0.131,0.092 0.264,0.18 0.394,0.27 2.858,1.956001 5.762,3.863001 8.708,5.715002 0.007,0.003 0.011,0.005 0.014,0.006 21.232,13.327004 44.793,23.910005 69.976,31.292005 m 44.402,7.524 v 0.008 c -0.173,0.089 -0.355,0.174 -0.527,0.264 -2.054,1.059 -4.047,2.05 -5.601,2.817 -0.584,0.286 -1.164,0.576 -1.751,0.857 -0.105,0.052 -0.222,0.11 -0.316,0.155 -0.004,-0.001 -0.004,-0.003 -0.004,-0.005 -16.981,8.118 -35.409,14.669 -54.875,19.524 l -0.811,0.149 v 5.657 c 6.209,1.8 10.753,7.518 10.753,14.307 0,8.232 -6.673,40.824 -14.904,40.824 -8.233,0 -14.905,-32.592 -14.905,-40.824 0,-6.789 4.544,-12.507 10.753,-14.307 v -4.12 l -22.296,4.122 v 3.93 c 4.535,1.688 7.771,6.043 7.771,11.166 0,6.586 -5.337,32.66 -11.924,32.66 -6.586,0 -11.923,-26.074 -11.923,-32.66 0,-5.123 3.237,-9.478 7.772,-11.166 v -2.394 l -0.463,0.087 c -0.967,0.121 -1.93,0.242 -2.903,0.356 -0.345,0.002 -0.686,0.016 -1.031,0.016 -0.531,0 -1.061,-0.021 -1.588,-0.025 -1.872,0.297 -3.735,0.607 -5.616,0.866 -12.814,1.187 -39.047,1.538 -39.047,1.538 0,0 -3.505,0.145 -9.644,0.158 v 15.867 h 13.201 l -2.998,4.201 -45,67.801 h -67.799 v -36.6 h -4.799 v 43.199 h 4.49 v 13.8 h -26.681 v -13.8 h 3.889 v -20.516 l -45.299,-53.884 h 8.398 v -52.922 -8.628 c 0,0 -45.873,1.908 -57.795,1.24 l -0.037,-0.003 v 3.503 c 6.282,1.754 10.894,7.504 10.894,14.343 0,8.232 -6.673,40.824 -14.904,40.824 -8.233,0 -14.905,-32.592 -14.905,-40.824 0,-6.579 4.27,-12.153 10.185,-14.128 v -4.669 l -23.939,-2.609 v 3.683 c 4.752,1.571 8.182,6.039 8.182,11.314 0,6.587 -5.337,32.66 -11.924,32.66 -6.586,0 -11.923,-26.073 -11.923,-32.66 0,-4.801 2.844,-8.929 6.935,-10.819 v -5.129 l -0.257,-0.028 c -2.492,-0.409 -4.975,-0.849 -7.446,-1.303 -0.007,0.013 -0.018,0.03 -0.025,0.042 -4.816,-0.849 -13.777,-2.479 -18.334,-3.605 5.534,-11.605001 20.419,-39.259007 48.039,-67.254007 32.794,-33.2319933 90.446,-73.106993 178.99,-74.319993 52.91,0 101.605,12.693 140.822,36.711 43.474,26.622993 74.057,65.705993 91.033,116.141 -1.877,1.215 -4.918,2.86 -7.913,4.412"
             style="fill:#313042;fill-opacity:1;fill-rule:nonzero;stroke:none"
             id="path32"
             inkscape:connector-curvature="0" /></g><g
           id="g34"
           transform="translate(340.3223,635.3394)"
           style="fill:#313042;fill-opacity:1"><path
             d="m 0,0 c 0,0 -0.149,0.262 -0.378,0.75 -0.217,0.492 -0.601,1.162 -0.814,2.245 -0.267,1.074 -0.387,2.364 -0.255,3.955 0.156,1.552 0.682,3.314 1.263,4.896 0.593,1.587 1.064,2.962 1.161,4.073 0.118,1.114 -0.003,2.097 -0.183,3.355 L 0.713,19.747 0.675,19.982 C 0.668,20.264 0.684,19.611 0.68,19.689 l -0.005,0.023 -0.007,0.044 -0.015,0.09 -0.028,0.18 c -0.073,0.472 -0.147,0.947 -0.221,1.424 -0.107,0.167 -0.19,0.327 -0.25,0.487 -0.109,0.209 -0.202,0.443 -0.286,0.663 -0.413,0.816 -0.923,1.554 -2.115,3.192 -1.2,1.644 -2.969,4.353 -3.762,7.383 -0.808,3.027 -0.719,5.864 -0.319,8.23 l 0.143,0.739 0.244,1.109 c 0.158,0.741 0.354,1.451 0.622,2.046 0.474,1.232 1.068,2.439 1.778,3.436 1.41,2.055 2.962,3.326 4.128,4.224 1.198,0.895 2.121,1.538 2.953,2.263 0.785,0.72 1.487,1.494 2.002,2.228 0.532,0.727 0.963,1.378 1.211,1.835 0.292,0.466 0.446,0.714 0.446,0.714 0,0 0.152,-0.249 0.38,-0.747 0.22,-0.495 0.6,-1.242 0.817,-2.273 C 8.673,55.951 8.79,54.627 8.662,53.045 8.508,51.491 7.983,49.729 7.401,48.143 6.812,46.554 6.34,45.179 6.245,44.068 6.192,43.495 6.164,43.005 6.224,42.449 6.226,42.163 6.291,41.953 6.324,41.768 L 6.361,41.48 6.43,40.797 6.502,40.074 6.535,39.711 6.537,39.688 c 0.014,0.615 0.005,0.162 0.011,0.295 l 0.005,-0.028 0.013,-0.059 0.027,-0.117 0.193,-0.925 c 0.103,-0.265 0.193,-0.525 0.273,-0.786 0.1,-0.233 0.202,-0.448 0.283,-0.674 0.408,-0.812 0.909,-1.554 2.097,-3.191 1.196,-1.64 2.958,-4.349 3.749,-7.377 0.169,-0.747 0.333,-1.478 0.453,-2.234 0.084,-0.821 0.143,-1.639 0.18,-2.442 -0.026,-0.503 -0.054,-1.002 -0.081,-1.498 L 13.729,20.47 13.725,20.378 13.721,20.332 13.72,20.31 c -0.002,0.061 0.009,-0.605 0.003,-0.338 L 13.652,19.485 13.505,18.521 C 13.123,15.979 12.132,13.31 10.724,11.272 9.317,9.22 7.764,7.948 6.599,7.049 5.401,6.152 4.477,5.507 3.646,4.783 2.865,4.071 2.158,3.264 1.653,2.573 1.126,1.901 0.688,1.172 0.444,0.712 0.172,0.246 0,0 0,0"
             style="fill:#313042;fill-opacity:1;fill-rule:nonzero;stroke:none"
             id="path36"
             inkscape:connector-curvature="0" /></g></g></g></g></svg>